# xmcd
#
# Track frame offsets: 
#        150
#        2119
#        39472
#        63598
#        95983
#        107779
#        135670
#        170584
#        192012
#        210553
#        223739
#        229715
#        237269
#        242316
#        250396
#        262771
#        270482
#        277900
#
# Disc length: 4106 seconds
#
# Revision: 2
# Processed by: cddbd v1.5.2PL0 Copyright (c) Steve Scherf et al.
# Submitted via: ExactAudioCopy v0.99pb5
#
DISCID=fc100812
DTITLE=Various Artist - Live at Carnegie Hall (DGG474 820-2) CD1
DYEAR=2004
DGENRE=Classical
TTITLE0=Applause - Lang Lang, Piano
TTITLE1=Schumann: Abegg-Variationen in F-dur op. 1 (à Mademoiselle Pau
TTITLE1=line, Comtesse d´Abegg): Tema. Animato - Var.I-III - Cantabile
TTITLE1=Finale alla Fantasia. Vivace - Lang Lang, Piano
TTITLE2=Haydn: Klaviersonate in C-dur, Hob. XVI:50: 1. Allegro - Lang 
TTITLE2=Lang, Piano
TTITLE3=Haydn: Klaviersonate in C-dur, Hob. XVI:50:2. Adagio - Lang La
TTITLE3=ng, Piano
TTITLE4=Haydn: Klaviersonate in C-dur, Hob. XVI:50: 3. Allegro molto /
TTITLE4=Lang Lang, Piano
TTITLE5=Schubert: Fantasie in C-dur, D 760 "Wanderer-Fantasie": 1. All
TTITLE5=egro con fuoco ma non troppo - Lang Lang, Piano
TTITLE6=Schubert: Fantasie in C-dur, D 760 "Wanderer-Fantasie": 2. Ada
TTITLE6=gio - Lang Lang, Piano
TTITLE7=Schubert: Fantasie in C-dur, D 760 "Wanderer-Fantasie": 3. Pre
TTITLE7=sto - Lang Lang, Piano
TTITLE8=Schubert: Fantasie in C-dur, D 760 "Wanderer-Fantasie": 4. All
TTITLE8=egro - Lang Lang, Piano
TTITLE9=Tan Dun: Acht Erinnerungen in Aquarellfarben, op. 1: Missing M
TTITLE9=oon. Adagio Rubato - Lang Lang, Piano
TTITLE10=Tan Dun: Acht Erinnerungen in Aquarellfarben, op. 1: Staccato
TTITLE10=Beans. Allegro - Lang Lang, Piano
TTITLE11=Tan Dun: Acht Erinnerungen in Aquarellfarben, op. 1: Herdboy'
TTITLE11=s Song. Licenza Pastorale - Lang Lang, Piano
TTITLE12=Tan Dun: Acht Erinnerungen in Aquarellfarben, op. 1: Blue Nun
TTITLE12=Andante - Lang Lang, Piano
TTITLE13=Tan Dun: Acht Erinnerungen in Aquarellfarben, op. 1: Red Wild
TTITLE13=erness.  Lento - Lang Lang, Piano
TTITLE14=Tan Dun: Acht Erinnerungen in Aquarellfarben, op. 1: Ancient 
TTITLE14=Burial. Adagio - Lang Lang, Piano
TTITLE15=Tan Dun: Acht Erinnerungen in Aquarellfarben, op. 1: Floating
TTITLE15=Clouds. Andante Semplice - Lang Lang
TTITLE16=Tan Dun: Acht Erinnerungen in Aquarellfarben, op. 1: Sunrain.
TTITLE16=Allegro - Lang Lang, Piano
TTITLE17=Chopin: Nocturne in Des-dur, op. 27 No. 2: Lento sostenuto - 
TTITLE17=Lang Lang, Piano
EXTD=
EXTT0=
EXTT1=
EXTT2=
EXTT3=
EXTT4=
EXTT5=
EXTT6=
EXTT7=
EXTT8=
EXTT9=
EXTT10=
EXTT11=
EXTT12=
EXTT13=
EXTT14=
EXTT15=
EXTT16=
EXTT17=
PLAYORDER=
